<svg width="40" height="40" viewBox="0 0 40 40" fill="none" xmlns="http://www.w3.org/2000/svg">
<path d="M32 6H7.99375C6.89375 6 6 6.90625 6 8.01875V31.9813C6 33.0938 6.89375 34 7.99375 34H32C33.1 34 34 33.0938 34 31.9813V8.01875C34 6.90625 33.1 6 32 6ZM14.4625 30H10.3125V16.6375H14.4688V30H14.4625ZM12.3875 10C13.7187 10 14.7937 11.075 14.7937 12.4062C14.7937 13.7375 13.7187 14.8125 12.3875 14.8125C11.0562 14.8125 9.98125 13.7375 9.98125 12.4062C9.98125 11.075 11.0562 10 12.3875 10ZM30.0187 30H25.8687V23.5C25.8687 21.95 25.8375 19.9562 23.7125 19.9562C21.55 19.9562 21.2188 21.6438 21.2188 23.3875V30H17.0688V16.6375H21.05V18.4625H21.1063C21.6625 17.4125 23.0188 16.3062 25.0375 16.3062C29.2375 16.3062 30.0187 19.075 30.0187 22.675V30Z" fill="white"/>
</svg>
