<svg width="40" height="40" viewBox="0 0 40 40" fill="none" xmlns="http://www.w3.org/2000/svg">
<path d="M36.3563 11.7563C35.9688 10.275 34.8063 9.1125 33.3375 8.71875C30.6813 8 20.0063 8 20.0063 8C20.0063 8 9.33125 8 6.66875 8.71875C5.2 9.1125 4.04375 10.275 3.65 11.7563C2.9375 14.4375 2.9375 20.025 2.9375 20.025C2.9375 20.025 2.9375 25.6125 3.65 28.2938C4.04375 29.7688 5.2 30.8875 6.66875 31.2812C9.33125 32 20.0063 32 20.0063 32C20.0063 32 30.6813 32 33.3438 31.2812C34.8125 30.8875 35.9687 29.7688 36.3625 28.2938C37.075 25.6125 37.075 20.025 37.075 20.025C37.075 20.025 37.075 14.4375 36.3625 11.7563H36.3563ZM16.5125 25.1V14.95L25.4312 20.025L16.5125 25.1Z" fill="white"/>
</svg>
